# xmcd
#
# Track frame offsets: 
#        150
#        13664
#        24457
#        35047
#        50205
#        61580
#        70834
#        79667
#        88559
#        100847
#        117126
#        128948
#        141429
#        153628
#        164613
#        180428
#
# Disc length: 2597 seconds
#
# Revision: 0
# Processed by: cddbd v1.5.2PL0 Copyright (c) Steve Scherf et al.
# Submitted via: ExactAudioCopy v0.99pb5
#
DISCID=d70a2310
DTITLE=Jandek - Living in a Moon So Blue
DYEAR=1982
DGENRE=
TTITLE0=Gretchen
TTITLE1=One Step Ahead
TTITLE2=Supression
TTITLE3=Strange Phenomenon
TTITLE4=You Can Stop Now
TTITLE5=Comedy
TTITLE6=Sailors
TTITLE7=Bludgeon
TTITLE8=All in an Apple Orchard
TTITLE9=She Fell Down
TTITLE10=Professional
TTITLE11=Anticipation
TTITLE12=Alexandria Knows
TTITLE13=Quite Nonchalant
TTITLE14=Relief of the Night
TTITLE15=Crime Pays
EXTD=
EXTT0=
EXTT1=
EXTT2=
EXTT3=
EXTT4=
EXTT5=
EXTT6=
EXTT7=
EXTT8=
EXTT9=
EXTT10=
EXTT11=
EXTT12=
EXTT13=
EXTT14=
EXTT15=
PLAYORDER=
